<mxfile host="app.diagrams.net" modified="2023-05-05T10:00:00.000Z" agent="5.0 (Windows NT 10.0; Win64; x64) AppleWebKit/537.36 (KHTML, like Gecko) Chrome/91.0.4472.124 Safari/537.36" etag="product-update-123" version="14.7.0" type="device">
  <diagram id="product-update-sequence" name="商品情報更新のシーケンス図">
    <mxGraphModel dx="1422" dy="762" grid="1" gridSize="10" guides="1" tooltips="1" connect="1" arrows="1" fold="1" page="1" pageScale="1" pageWidth="1169" pageHeight="827" math="0" shadow="0">
      <root>
        <mxCell id="0" />
        <mxCell id="1" parent="0" />
        <mxCell id="title" value="商品情報更新のシーケンス図" style="text;html=1;align=center;verticalAlign=middle;resizable=0;points=[];autosize=1;strokeColor=none;fillColor=none;fontSize=18;fontStyle=1" vertex="1" parent="1">
          <mxGeometry x="405" y="20" width="280" height="40" as="geometry" />
        </mxCell>
        
        <!-- アクター：ユーザー -->
        <mxCell id="user" value="ユーザー" style="shape=umlActor;verticalLabelPosition=bottom;verticalAlign=top;html=1;" vertex="1" parent="1">
          <mxGeometry x="100" y="80" width="30" height="60" as="geometry" />
        </mxCell>
        
        <!-- オブジェクト：ブラウザ -->
        <mxCell id="browser" value="ブラウザ" style="html=1;fontSize=14;" vertex="1" parent="1">
          <mxGeometry x="220" y="90" width="100" height="40" as="geometry" />
        </mxCell>
        
        <!-- オブジェクト：ProductController -->
        <mxCell id="controller" value="商品コントローラ&#xa;(ProductController)" style="html=1;fontSize=14;" vertex="1" parent="1">
          <mxGeometry x="380" y="90" width="160" height="40" as="geometry" />
        </mxCell>
        
        <!-- オブジェクト：ProductService -->
        <mxCell id="productService" value="商品サービス&#xa;(ProductService)" style="html=1;fontSize=14;" vertex="1" parent="1">
          <mxGeometry x="600" y="90" width="160" height="40" as="geometry" />
        </mxCell>
        
        <!-- オブジェクト：CategoryService -->
        <mxCell id="categoryService" value="カテゴリサービス&#xa;(CategoryService)" style="html=1;fontSize=14;" vertex="1" parent="1">
          <mxGeometry x="820" y="90" width="160" height="40" as="geometry" />
        </mxCell>
        
        <!-- ライフライン -->
        <mxCell id="userLine" value="" style="html=1;points=[];perimeter=orthogonalPerimeter;" vertex="1" parent="1">
          <mxGeometry x="115" y="150" width="1" height="650" as="geometry" />
        </mxCell>
        
        <mxCell id="browserLine" value="" style="html=1;points=[];perimeter=orthogonalPerimeter;" vertex="1" parent="1">
          <mxGeometry x="269.5" y="150" width="1" height="650" as="geometry" />
        </mxCell>
        
        <mxCell id="controllerLine" value="" style="html=1;points=[];perimeter=orthogonalPerimeter;" vertex="1" parent="1">
          <mxGeometry x="459.5" y="150" width="1" height="650" as="geometry" />
        </mxCell>
        
        <mxCell id="productServiceLine" value="" style="html=1;points=[];perimeter=orthogonalPerimeter;" vertex="1" parent="1">
          <mxGeometry x="679.5" y="150" width="1" height="650" as="geometry" />
        </mxCell>
        
        <mxCell id="categoryServiceLine" value="" style="html=1;points=[];perimeter=orthogonalPerimeter;" vertex="1" parent="1">
          <mxGeometry x="899.5" y="150" width="1" height="650" as="geometry" />
        </mxCell>
        
        <!-- シーケンス：編集フォーム表示 -->
        <!-- ユーザー -> ブラウザ -->
        <mxCell id="userToBrowser1" value="商品編集画面にアクセス" style="html=1;verticalAlign=bottom;endArrow=block;entryX=0;entryY=0;" edge="1" parent="1" source="userLine" target="browserActivation1">
          <mxGeometry relative="1" as="geometry">
            <mxPoint x="180" y="180" as="sourcePoint" />
          </mxGeometry>
        </mxCell>
        
        <!-- ブラウザのアクティベーション -->
        <mxCell id="browserActivation1" value="" style="html=1;points=[];perimeter=orthogonalPerimeter;fillColor=#dae8fc;strokeColor=#6c8ebf;" vertex="1" parent="1">
          <mxGeometry x="265" y="180" width="10" height="60" as="geometry" />
        </mxCell>
        
        <!-- ブラウザ -> コントローラ -->
        <mxCell id="browserToController1" value="GET /products/{id}/edit" style="html=1;verticalAlign=bottom;endArrow=block;entryX=0;entryY=0;" edge="1" parent="1" source="browserActivation1" target="controllerActivation1">
          <mxGeometry relative="1" as="geometry">
            <mxPoint x="350" y="200" as="sourcePoint" />
          </mxGeometry>
        </mxCell>
        
        <!-- コントローラのアクティベーション -->
        <mxCell id="controllerActivation1" value="" style="html=1;points=[];perimeter=orthogonalPerimeter;fillColor=#d5e8d4;strokeColor=#82b366;" vertex="1" parent="1">
          <mxGeometry x="455" y="200" width="10" height="280" as="geometry" />
        </mxCell>
        
        <!-- コントローラ -> ProductService：商品検索 -->
        <mxCell id="controllerToProductService1" value="findById(id)" style="html=1;verticalAlign=bottom;endArrow=block;entryX=0;entryY=0;" edge="1" parent="1" source="controllerActivation1" target="productServiceActivation1">
          <mxGeometry relative="1" as="geometry">
            <mxPoint x="530" y="240" as="sourcePoint" />
          </mxGeometry>
        </mxCell>
        
        <!-- ProductServiceのアクティベーション -->
        <mxCell id="productServiceActivation1" value="" style="html=1;points=[];perimeter=orthogonalPerimeter;fillColor=#fff2cc;strokeColor=#d6b656;" vertex="1" parent="1">
          <mxGeometry x="675" y="240" width="10" height="60" as="geometry" />
        </mxCell>
        
        <!-- ProductService -> コントローラ：商品返却 -->
        <mxCell id="productServiceToController1" value="Optional&lt;Product&gt;" style="html=1;verticalAlign=bottom;endArrow=open;dashed=1;endSize=8;" edge="1" parent="1" source="productServiceActivation1" target="controllerActivation1">
          <mxGeometry relative="1" as="geometry">
            <mxPoint x="530" y="300" as="targetPoint" />
          </mxGeometry>
        </mxCell>
        
        <!-- コントローラ -> CategoryService：カテゴリ一覧取得 -->
        <mxCell id="controllerToCategoryService1" value="findAllSorted()" style="html=1;verticalAlign=bottom;endArrow=block;entryX=0;entryY=0;" edge="1" parent="1" source="controllerActivation1" target="categoryServiceActivation1">
          <mxGeometry relative="1" as="geometry">
            <mxPoint x="530" y="340" as="sourcePoint" />
          </mxGeometry>
        </mxCell>
        
        <!-- CategoryServiceのアクティベーション -->
        <mxCell id="categoryServiceActivation1" value="" style="html=1;points=[];perimeter=orthogonalPerimeter;fillColor=#fff2cc;strokeColor=#d6b656;" vertex="1" parent="1">
          <mxGeometry x="895" y="340" width="10" height="60" as="geometry" />
        </mxCell>
        
        <!-- CategoryService -> コントローラ：カテゴリリスト返却 -->
        <mxCell id="categoryServiceToController1" value="List&lt;Category&gt;" style="html=1;verticalAlign=bottom;endArrow=open;dashed=1;endSize=8;" edge="1" parent="1" source="categoryServiceActivation1" target="controllerActivation1">
          <mxGeometry relative="1" as="geometry">
            <mxPoint x="530" y="400" as="targetPoint" />
          </mxGeometry>
        </mxCell>
        
        <!-- 内部処理：モデル準備 -->
        <mxCell id="controllerInternalProcess1" value="" style="html=1;points=[];perimeter=orthogonalPerimeter;fillColor=#d5e8d4;strokeColor=#82b366;" vertex="1" parent="1">
          <mxGeometry x="460" y="420" width="10" height="40" as="geometry" />
        </mxCell>
        
        <mxCell id="controllerInternalNote1" value="モデルに商品オブジェクトと&#xa;カテゴリリストを追加" style="shape=note;size=15;align=left;spacingLeft=5;html=1;whiteSpace=wrap;" vertex="1" parent="1">
          <mxGeometry x="480" y="410" width="160" height="50" as="geometry" />
        </mxCell>
        
        <!-- コントローラ -> ブラウザ：ビュー名返却 -->
        <mxCell id="controllerToBrowser1" value="ビュー名: 'product/edit'" style="html=1;verticalAlign=bottom;endArrow=open;dashed=1;endSize=8;exitX=0;exitY=0.95;" edge="1" parent="1" source="controllerActivation1" target="browserActivation2">
          <mxGeometry relative="1" as="geometry">
            <mxPoint x="350" y="466" as="targetPoint" />
          </mxGeometry>
        </mxCell>
        
        <!-- ブラウザのアクティベーション (2) -->
        <mxCell id="browserActivation2" value="" style="html=1;points=[];perimeter=orthogonalPerimeter;fillColor=#dae8fc;strokeColor=#6c8ebf;" vertex="1" parent="1">
          <mxGeometry x="265" y="460" width="10" height="60" as="geometry" />
        </mxCell>
        
        <!-- ブラウザ -> ユーザー：フォーム表示 -->
        <mxCell id="browserToUser1" value="商品編集フォームを表示" style="html=1;verticalAlign=bottom;endArrow=open;dashed=1;endSize=8;" edge="1" parent="1" source="browserActivation2" target="userLine">
          <mxGeometry relative="1" as="geometry">
            <mxPoint x="180" y="520" as="targetPoint" />
          </mxGeometry>
        </mxCell>
        
        <!-- シーケンス：商品更新処理 -->
        <!-- ユーザー -> ブラウザ：フォーム送信 -->
        <mxCell id="userToBrowser2" value="商品情報を編集して更新" style="html=1;verticalAlign=bottom;endArrow=block;entryX=0;entryY=0;" edge="1" parent="1" target="browserActivation3">
          <mxGeometry relative="1" as="geometry">
            <mxPoint x="115" y="570" as="sourcePoint" />
          </mxGeometry>
        </mxCell>
        
        <!-- ブラウザのアクティベーション (3) -->
        <mxCell id="browserActivation3" value="" style="html=1;points=[];perimeter=orthogonalPerimeter;fillColor=#dae8fc;strokeColor=#6c8ebf;" vertex="1" parent="1">
          <mxGeometry x="265" y="570" width="10" height="60" as="geometry" />
        </mxCell>
        
        <!-- ブラウザ -> コントローラ：商品更新リクエスト -->
        <mxCell id="browserToController2" value="POST /products/{id}" style="html=1;verticalAlign=bottom;endArrow=block;entryX=0;entryY=0;" edge="1" parent="1" source="browserActivation3" target="controllerActivation2">
          <mxGeometry relative="1" as="geometry">
            <mxPoint x="350" y="630" as="sourcePoint" />
          </mxGeometry>
        </mxCell>
        
        <!-- コントローラのアクティベーション (2) -->
        <mxCell id="controllerActivation2" value="" style="html=1;points=[];perimeter=orthogonalPerimeter;fillColor=#d5e8d4;strokeColor=#82b366;" vertex="1" parent="1">
          <mxGeometry x="455" y="620" width="10" height="140" as="geometry" />
        </mxCell>
        
        <!-- 内部処理：IDの設定 -->
        <mxCell id="controllerInternalProcess2" value="" style="html=1;points=[];perimeter=orthogonalPerimeter;fillColor=#d5e8d4;strokeColor=#82b366;" vertex="1" parent="1">
          <mxGeometry x="460" y="640" width="10" height="40" as="geometry" />
        </mxCell>
        
        <mxCell id="controllerInternalNote2" value="対象商品のIDを設定" style="shape=note;size=15;align=left;spacingLeft=5;html=1;whiteSpace=wrap;" vertex="1" parent="1">
          <mxGeometry x="480" y="640" width="140" height="30" as="geometry" />
        </mxCell>
        
        <!-- コントローラ -> ProductService：商品保存 -->
        <mxCell id="controllerToProductService2" value="save(product)" style="html=1;verticalAlign=bottom;endArrow=block;entryX=0;entryY=0;" edge="1" parent="1" source="controllerActivation2" target="productServiceActivation2">
          <mxGeometry relative="1" as="geometry">
            <mxPoint x="530" y="700" as="sourcePoint" />
          </mxGeometry>
        </mxCell>
        
        <!-- ProductServiceのアクティベーション (2) -->
        <mxCell id="productServiceActivation2" value="" style="html=1;points=[];perimeter=orthogonalPerimeter;fillColor=#fff2cc;strokeColor=#d6b656;" vertex="1" parent="1">
          <mxGeometry x="675" y="700" width="10" height="40" as="geometry" />
        </mxCell>
        
        <!-- ProductService -> コントローラ：更新結果返却 -->
        <mxCell id="productServiceToController2" value="updatedProduct" style="html=1;verticalAlign=bottom;endArrow=open;dashed=1;endSize=8;" edge="1" parent="1" source="productServiceActivation2" target="controllerActivation2">
          <mxGeometry relative="1" as="geometry">
            <mxPoint x="530" y="740" as="targetPoint" />
          </mxGeometry>
        </mxCell>
        
        <!-- コントローラ -> ブラウザ：リダイレクト -->
        <mxCell id="controllerToBrowser2" value="リダイレクト: /products/{id}" style="html=1;verticalAlign=bottom;endArrow=open;dashed=1;endSize=8;" edge="1" parent="1" source="controllerActivation2" target="browserActivation4">
          <mxGeometry relative="1" as="geometry">
            <mxPoint x="350" y="760" as="targetPoint" />
          </mxGeometry>
        </mxCell>
        
        <!-- ブラウザのアクティベーション (4) -->
        <mxCell id="browserActivation4" value="" style="html=1;points=[];perimeter=orthogonalPerimeter;fillColor=#dae8fc;strokeColor=#6c8ebf;" vertex="1" parent="1">
          <mxGeometry x="265" y="740" width="10" height="60" as="geometry" />
        </mxCell>
        
        <!-- ブラウザ -> ユーザー：商品詳細画面表示 -->
        <mxCell id="browserToUser2" value="更新完了メッセージと&#xa;商品詳細画面を表示" style="html=1;verticalAlign=bottom;endArrow=open;dashed=1;endSize=8;" edge="1" parent="1" source="browserActivation4" target="userLine">
          <mxGeometry relative="1" as="geometry">
            <mxPoint x="180" y="800" as="targetPoint" />
          </mxGeometry>
        </mxCell>
        
      </root>
    </mxGraphModel>
  </diagram>
</mxfile>